<?xml version="1.0" standalone="no"?>
<!DOCTYPE svg PUBLIC "-//W3C//DTD SVG 20010904//EN"
 "http://www.w3.org/TR/2001/REC-SVG-20010904/DTD/svg10.dtd">
<svg version="1.0" xmlns="http://www.w3.org/2000/svg"
 width="666.000000pt" height="375.000000pt" viewBox="0 0 666.000000 375.000000"
 preserveAspectRatio="xMidYMid meet">

<g transform="translate(0.000000,375.000000) scale(0.100000,-0.100000)"
fill="#000000" stroke="none">
<path d="M4214 2842 l5 -72 -39 -20 c-65 -33 -71 -61 -6 -29 22 10 41 19 43
19 2 0 3 -30 3 -67 0 -38 4 -63 8 -58 4 6 24 19 45 29 35 18 54 45 22 32 -8
-3 -21 -8 -28 -11 -9 -4 -16 22 -25 100 -16 131 -35 184 -28 77z"/>
<path d="M2914 2845 c-9 -23 3 -32 36 -27 24 3 30 0 32 -14 0 -11 2 -23 3 -29
2 -5 4 -14 5 -20 2 -15 18 27 19 52 1 12 -6 29 -15 37 -20 20 -73 21 -80 1z"/>
<path d="M1944 2834 c3 -9 6 -19 6 -22 0 -9 20 21 20 31 0 4 -7 7 -16 7 -11 0
-14 -5 -10 -16z"/>
<path d="M1977 2833 c-12 -12 -7 -22 8 -17 8 4 15 10 15 15 0 11 -14 12 -23 2z"/>
<path d="M1890 2821 c0 -5 5 -13 10 -16 6 -3 10 -2 10 4 0 5 -4 13 -10 16 -5
3 -10 2 -10 -4z"/>
<path d="M5610 2814 c-52 -8 -126 -17 -165 -20 l-70 -6 0 -71 0 -71 -58 -14
c-32 -8 -60 -12 -63 -10 -2 3 -9 31 -14 63 -5 32 -11 59 -13 62 -2 2 -42 -14
-89 -36 -47 -21 -99 -42 -117 -46 -25 -5 -31 -11 -31 -34 0 -15 -6 -36 -14
-46 -11 -15 -11 -21 2 -36 13 -15 17 -16 26 -4 6 8 35 17 66 19 30 3 71 10 90
16 53 15 69 13 75 -13 4 -16 13 -23 28 -23 18 1 23 -5 25 -32 3 -27 7 -32 20
-26 9 4 43 10 75 12 39 3 57 8 57 17 0 8 10 15 22 17 12 2 23 8 25 13 4 12
-76 14 -94 2 -8 -5 -11 -4 -8 5 8 19 76 55 121 64 21 4 44 13 49 21 6 7 39 19
75 25 36 7 67 15 70 19 3 3 21 9 41 13 34 6 37 9 43 53 11 83 11 83 -36 82
-24 -1 -86 -8 -138 -15z"/>
<path d="M1997 2813 c-12 -12 -7 -22 8 -17 8 4 15 10 15 15 0 11 -14 12 -23 2z"/>
<path d="M1866 2802 c-3 -6 1 -13 10 -16 23 -9 28 -2 10 13 -8 7 -17 8 -20 3z"/>
<path d="M4351 2791 c-6 -10 -8 -41 -5 -68 6 -43 3 -53 -20 -80 -33 -40 -33
-48 1 -26 15 10 24 12 20 6 -13 -21 63 -16 79 5 13 16 14 16 8 0 -3 -10 -1
-18 5 -18 16 0 13 41 -4 64 -8 11 -15 39 -15 62 0 23 -3 49 -6 58 -8 22 -51
20 -63 -3z m59 -35 c0 -8 -4 -18 -10 -21 -5 -3 -10 -1 -10 4 0 6 -5 11 -11 11
-6 0 -8 -7 -5 -16 5 -14 4 -15 -9 -4 -25 21 -18 40 15 40 19 0 30 -5 30 -14z"/>
<path d="M2504 2763 l-72 -25 -1 -70 c-1 -58 1 -69 13 -65 9 4 18 2 21 -3 3
-4 -1 -11 -7 -13 -7 -3 -1 -6 14 -6 30 -1 65 -42 53 -62 -4 -6 -2 -22 5 -35
13 -24 13 -24 44 -5 32 19 53 20 121 7 110 -21 119 -30 154 -143 19 -64 24
-73 46 -73 28 0 33 -6 39 -51 2 -19 7 -41 11 -50 3 -8 1 -27 -4 -42 -7 -17 -7
-28 -1 -32 6 -4 10 -24 10 -46 0 -21 2 -39 4 -39 10 0 74 66 79 83 4 9 11 17
16 17 14 0 34 -39 27 -55 -3 -8 3 -16 12 -18 9 -3 1 -5 -18 -6 -30 -1 -41 -8
-68 -43 -32 -41 -33 -46 -27 -103 10 -96 15 -113 35 -118 11 -3 25 -17 31 -31
11 -23 9 -29 -10 -50 -15 -16 -29 -22 -43 -18 -19 5 -20 2 -14 -31 8 -41 -4
-49 -66 -42 -36 3 -38 2 -38 -26 l0 -29 -111 0 -111 0 31 29 c41 38 41 55 0
47 -17 -3 -55 -6 -83 -6 -41 0 -57 -5 -79 -25 -31 -30 -34 -44 -9 -46 9 -1 4
-5 -13 -9 l-30 -8 33 -1 c30 -1 32 -3 32 -36 l0 -35 -155 0 c-97 0 -155 -4
-155 -10 0 -5 -7 -10 -15 -10 -19 0 -13 -59 12 -105 10 -19 31 -59 47 -89 16
-30 33 -53 38 -50 4 3 12 -5 17 -18 6 -13 10 -18 10 -13 1 6 10 -5 21 -23 13
-21 31 -35 50 -39 18 -3 30 -12 30 -21 0 -8 3 -12 7 -9 3 4 12 2 19 -4 16 -13
53 -21 119 -24 28 -1 52 -3 55 -4 13 -5 90 -5 90 0 0 3 17 6 38 6 20 0 56 2
80 3 34 2 47 -3 69 -24 14 -14 35 -26 47 -26 28 0 85 36 94 59 7 17 12 17 96
-15 49 -19 91 -33 93 -30 2 2 -40 21 -94 42 -87 33 -142 68 -129 81 6 6 206
-65 223 -79 9 -7 13 -7 13 0 0 5 -48 29 -107 52 -126 49 -170 74 -178 100 -3
10 -15 22 -26 25 -17 6 -13 13 36 71 30 35 60 82 66 103 l12 39 84 -1 c47 -1
87 2 90 7 4 5 -124 7 -301 4 -292 -4 -308 -3 -317 14 -12 22 -3 57 14 59 7 1
144 1 305 -1 l292 -2 0 410 0 410 -37 6 c-21 3 -45 5 -53 4 -8 0 -34 0 -58 0
l-43 2 7 64 6 63 -41 23 c-22 13 -39 26 -36 28 2 2 20 -6 40 -18 20 -12 38
-20 41 -18 2 3 5 33 6 68 2 47 -1 64 -11 68 -11 4 -13 -4 -9 -35 3 -22 3 -45
-1 -50 -7 -10 -91 -12 -85 -2 2 4 -4 13 -13 20 -14 12 -16 12 -11 -1 4 -11 -1
-16 -14 -17 -10 -1 -21 4 -24 12 -3 8 -35 33 -70 56 -35 23 -64 44 -64 46 0 5
21 -7 90 -54 19 -12 37 -23 41 -23 9 0 43 79 36 86 -10 10 -282 111 -313 116
-17 3 -59 -5 -100 -19z m142 -24 c3 -6 -5 -3 -20 6 -14 10 -26 19 -26 22 0 7
39 -17 46 -28z m-96 -58 c0 -55 -1 -56 -47 -66 -32 -6 -33 -5 -33 24 0 46 16
79 42 84 13 2 26 5 31 6 4 0 7 -21 7 -48z m624 -377 c12 -5 16 -21 16 -65 l0
-59 -85 0 -85 0 0 58 c0 32 3 62 7 65 8 9 126 9 147 1z m-14 -247 c0 -26 -23
-16 -32 14 -6 17 -6 14 -3 -11 5 -32 4 -34 -11 -18 -16 16 -16 19 0 43 17 25
18 26 31 8 8 -10 15 -26 15 -36z m28 -159 l-3 -63 -82 -3 -83 -3 0 66 0 65 85
0 86 0 -3 -62z m-38 -98 c11 -11 20 -27 20 -35 0 -20 -36 -55 -57 -55 -44 0
-69 63 -37 94 21 22 50 20 74 -4z m-5 -144 c18 -27 9 -58 -23 -75 -43 -22 -87
33 -62 78 16 30 65 28 85 -3z m33 -123 c-16 -2 -40 -2 -55 0 -16 2 -3 4 27 4
30 0 43 -2 28 -4z m-235 -100 c-13 -2 -33 -2 -45 0 -13 2 -3 4 22 4 25 0 35
-2 23 -4z m90 0 c-7 -2 -21 -2 -30 0 -10 3 -4 5 12 5 17 0 24 -2 18 -5z m-193
-11 c0 -5 -13 -27 -30 -50 -46 -64 -129 -93 -189 -65 l-33 16 22 17 c19 14 22
24 17 54 l-6 36 110 0 c60 0 109 -4 109 -8z m-412 -30 c-2 -10 3 -22 12 -29
13 -10 13 -12 -5 -19 -11 -4 -23 -12 -27 -18 -6 -8 -11 -7 -16 2 -5 7 -15 12
-22 10 -7 -2 -15 3 -17 10 -3 7 3 12 13 12 14 0 15 3 6 12 -18 18 -14 31 7 25
12 -3 22 1 25 10 8 19 28 6 24 -15z m27 -183 c11 19 28 12 22 -8 -3 -12 1 -22
10 -25 21 -8 4 -29 -18 -23 -14 4 -19 0 -19 -14 0 -10 -4 -19 -10 -19 -5 0
-10 12 -10 26 0 14 -4 23 -9 19 -5 -3 -12 -1 -16 5 -3 5 -2 10 3 10 5 0 7 12
4 28 -5 27 -5 27 16 9 13 -12 22 -15 27 -8z"/>
<path d="M3080 1750 c0 -5 5 -10 10 -10 6 0 10 5 10 10 0 6 -4 10 -10 10 -5 0
-10 -4 -10 -10z"/>
<path d="M3065 1630 c-3 -5 -1 -10 4 -10 6 0 11 5 11 10 0 6 -2 10 -4 10 -3 0
-8 -4 -11 -10z"/>
<path d="M5315 2780 c-13 -5 -14 -9 -5 -9 8 0 24 4 35 9 13 5 14 9 5 9 -8 0
-24 -4 -35 -9z"/>
<path d="M1135 2767 c-11 -6 -27 -14 -35 -19 -8 -4 -32 -15 -52 -24 -20 -8
-39 -22 -42 -30 -3 -8 -12 -14 -20 -14 -8 0 -27 -12 -41 -26 -21 -21 -24 -29
-13 -35 18 -12 5 -11 -26 1 -19 7 -29 5 -42 -7 -15 -15 -15 -18 2 -30 10 -7
14 -13 8 -13 -5 0 -1 -5 9 -11 10 -6 21 -8 24 -5 4 3 0 6 -7 6 -9 0 -7 5 6 16
10 8 12 12 4 8 -12 -6 -13 -5 -2 7 11 12 14 12 22 -1 7 -10 10 -11 10 -2 0 6
5 12 10 12 6 0 10 -9 10 -19 0 -11 6 -21 12 -23 14 -5 38 15 38 31 0 6 11 11
25 11 15 0 31 9 41 25 19 29 58 42 77 27 9 -8 19 -6 36 7 l23 18 -28 50 c-26
44 -32 49 -49 40z m-65 -97 c0 -5 -2 -10 -4 -10 -3 0 -8 5 -11 10 -3 6 -1 10
4 10 6 0 11 -4 11 -10z"/>
<path d="M2018 2753 c6 -2 18 -2 25 0 6 3 1 5 -13 5 -14 0 -19 -2 -12 -5z"/>
<path d="M5324 2748 c-4 -6 1 -17 12 -25 20 -15 30 -4 20 22 -6 18 -22 19 -32
3z"/>
<path d="M2326 2689 c-8 -79 -6 -627 2 -657 4 -13 7 144 8 347 0 204 -1 371
-2 371 0 0 -4 -28 -8 -61z"/>
<path d="M1871 2711 c-8 -5 -9 -11 -3 -15 5 -3 15 1 22 9 14 16 3 20 -19 6z"/>
<path d="M2000 2695 c12 -15 30 -12 30 6 0 5 -10 9 -21 9 -18 0 -19 -2 -9 -15z"/>
<path d="M1894 2685 c-10 -8 -14 -15 -8 -15 6 0 17 7 24 15 16 19 9 19 -16 0z"/>
<path d="M1926 2681 c-4 -7 -5 -15 -2 -18 9 -9 19 4 14 18 -4 11 -6 11 -12 0z"/>
<path d="M1610 2671 c0 -6 5 -13 10 -16 6 -3 10 -11 10 -17 0 -6 -11 -1 -24
11 -19 18 -28 21 -44 12 -11 -6 -22 -7 -26 -4 -3 3 -6 1 -6 -5 0 -6 5 -14 10
-17 27 -17 1 -25 -92 -27 l-103 -3 -3 -32 c-3 -29 0 -33 33 -42 49 -13 127
-60 119 -72 -3 -5 -2 -9 3 -8 25 4 42 -3 48 -21 5 -17 15 -20 57 -20 l50 0 -7
-120 c-6 -87 -4 -120 4 -120 12 0 17 284 5 314 -4 10 -18 16 -36 16 -25 0 -28
-3 -23 -20 5 -17 2 -20 -25 -20 -30 0 -31 1 -28 43 l3 42 70 3 c67 3 71 2 88
-25 l18 -28 -5 27 c-3 14 -8 32 -11 40 -4 9 10 22 36 37 35 20 39 25 25 33 -9
5 -24 8 -34 6 -10 -1 -29 7 -42 20 -23 22 -80 31 -80 13z"/>
<path d="M5300 2668 c0 -20 27 -24 50 -7 12 8 10 9 -9 4 -15 -5 -27 -2 -32 6
-7 11 -9 10 -9 -3z"/>
<path d="M2411 2644 c0 -11 3 -14 6 -6 3 7 2 16 -1 19 -3 4 -6 -2 -5 -13z"/>
<path d="M4093 2592 c-13 -2 -23 -8 -23 -13 0 -5 81 -9 195 -9 123 0 195 4
195 10 0 6 -26 10 -57 11 -32 0 -110 1 -173 2 -63 1 -125 1 -137 -1z"/>
<path d="M1065 2570 c-9 -15 3 -30 25 -30 15 0 30 18 30 36 0 9 -49 3 -55 -6z"/>
<path d="M1126 2545 c-4 -14 -11 -25 -17 -25 -6 0 -8 -4 -5 -9 3 -5 -7 -8 -23
-7 -23 2 -29 -2 -28 -16 1 -10 4 -18 8 -18 15 0 15 -36 0 -67 -20 -44 -27 -41
-23 7 4 35 2 40 -17 40 -12 0 -21 -4 -21 -10 0 -5 -18 -10 -40 -10 -33 0 -40
3 -40 19 0 11 -6 23 -12 27 -7 4 -10 4 -6 0 4 -5 1 -14 -5 -21 -9 -10 -15 -7
-29 16 -10 16 -29 31 -44 35 -18 5 -22 9 -13 15 7 4 11 11 7 14 -4 4 -23 -18
-43 -48 -32 -49 -35 -57 -24 -81 7 -14 16 -26 21 -26 16 0 8 -27 -16 -49 -21
-19 -24 -20 -30 -6 -3 9 -4 21 0 26 3 5 -2 9 -10 9 -12 0 -16 -11 -16 -45 0
-48 11 -56 50 -35 17 9 20 6 26 -17 27 -121 44 -140 108 -122 39 11 41 17 20
92 -6 18 11 24 21 6 4 -6 19 -7 35 -4 28 6 28 6 28 -45 1 -43 -2 -52 -21 -60
-19 -7 -19 -9 -3 -9 14 -1 17 -6 12 -23 -3 -13 -6 -26 -6 -30 0 -5 -16 -8 -35
-8 -25 0 -37 6 -45 21 -7 11 -13 19 -15 17 -1 -1 -10 -93 -19 -203 -55 -651
-51 -579 -32 -572 7 3 19 0 25 -6 8 -8 11 -8 11 1 0 7 -4 12 -10 12 -5 0 -10
9 -10 20 0 15 7 20 25 20 35 0 32 26 -5 34 -26 5 -30 10 -30 38 0 44 27 142
40 146 15 5 40 32 40 43 0 5 -11 15 -25 21 -18 8 -22 14 -15 24 7 7 7 13 1 16
-5 1 -7 15 -4 31 5 24 10 27 44 27 21 0 41 -4 44 -10 3 -5 10 -10 14 -10 4 0
15 98 24 218 10 119 21 243 24 275 l6 58 -35 -6 c-25 -5 -40 -2 -58 13 -34 27
-21 54 22 46 18 -4 38 -12 43 -18 6 -6 25 -11 43 -10 30 1 37 7 61 50 15 27
39 71 54 97 25 45 26 50 13 82 -18 41 -31 45 -40 10z m-250 -142 c-10 -10 -19
5 -10 18 6 11 8 11 12 0 2 -7 1 -15 -2 -18z m-96 7 c0 -5 -5 -10 -11 -10 -5 0
-7 5 -4 10 3 6 8 10 11 10 2 0 4 -4 4 -10z m203 -7 c-7 -2 -19 -2 -25 0 -7 3
-2 5 12 5 14 0 19 -2 13 -5z m-14 -369 c2 -2 -10 -4 -27 -4 -25 0 -32 -4 -32
-19 0 -23 25 -51 46 -51 12 0 14 -10 10 -42 -2 -24 -5 -53 -5 -65 -1 -19 -7
-23 -33 -25 l-33 -1 33 -4 c28 -4 32 -8 32 -34 0 -28 -2 -29 -45 -29 -43 0
-45 1 -45 28 0 16 3 32 7 36 4 4 6 23 4 42 -2 33 -2 34 36 36 l38 1 -37 4
c-41 4 -49 24 -28 63 6 10 6 21 1 24 -4 3 -6 17 -3 31 4 23 8 25 41 19 20 -4
38 -8 40 -10z"/>
<path d="M4083 2553 c-7 -2 -13 -11 -13 -19 0 -8 -4 -14 -10 -14 -21 0 -8 -18
22 -31 41 -17 95 -64 114 -100 19 -38 17 -106 -5 -154 -26 -55 -92 -130 -101
-114 -10 15 -33 1 -27 -16 4 -9 -11 -12 -55 -13 -32 0 -62 -2 -65 -5 -7 -8
451 -9 470 -1 10 3 15 10 12 14 -3 5 10 35 28 67 57 97 70 144 64 220 -3 38
-11 85 -17 106 -9 31 -15 37 -31 32 -15 -5 -19 -2 -19 14 0 20 -4 21 -177 20
-98 0 -184 -3 -190 -6z m125 -30 c-10 -2 -26 -2 -35 0 -10 3 -2 5 17 5 19 0
27 -2 18 -5z m95 0 c-7 -2 -21 -2 -30 0 -10 3 -4 5 12 5 17 0 24 -2 18 -5z"/>
<path d="M3855 2542 c-3 -3 -60 -6 -127 -8 -68 -1 -138 -2 -155 -3 -19 -1 -33
-6 -33 -13 0 -7 -7 -26 -15 -42 -9 -16 -12 -33 -7 -38 5 -5 37 -13 71 -19 59
-11 62 -13 57 -35 -8 -29 -5 -29 43 -4 34 17 41 17 57 5 26 -20 27 -19 66 18
19 17 47 43 64 57 16 14 37 37 47 53 17 26 17 27 0 28 -10 0 -28 2 -41 3 -12
2 -24 0 -27 -2z"/>
<path d="M2422 2425 c-12 -323 -13 -419 -3 -409 8 7 10 84 8 245 -1 129 -4
203 -5 164z"/>
<path d="M4912 2470 c0 -14 2 -19 5 -12 2 6 2 18 0 25 -3 6 -5 1 -5 -13z"/>
<path d="M1796 2433 c4 -16 8 -43 9 -62 2 -36 35 -68 35 -33 0 32 -30 122 -41
122 -7 0 -8 -10 -3 -27z"/>
<path d="M1695 2428 c-4 -10 -4 -26 0 -35 8 -17 8 -17 12 0 3 9 3 25 0 35 -4
16 -4 16 -12 0z"/>
<path d="M4009 2412 c-26 -27 -45 -88 -40 -127 4 -27 9 -31 23 -17 8 8 8 15
-2 27 -10 12 -10 19 -1 28 9 9 13 6 18 -12 5 -20 10 -22 40 -18 46 8 63 23 63
57 0 30 -43 90 -63 90 -7 -1 -24 -13 -38 -28z"/>
<path d="M5121 2374 c0 -11 3 -14 6 -6 3 7 2 16 -1 19 -3 4 -6 -2 -5 -13z"/>
<path d="M5750 2371 c0 -6 5 -11 11 -11 7 0 9 -12 5 -33 -11 -61 46 -133 61
-77 3 11 9 20 13 20 11 0 33 67 26 78 -3 5 -23 12 -45 16 -22 3 -46 9 -55 12
-9 3 -16 1 -16 -5z"/>
<path d="M3880 2341 c-23 -6 -25 -12 -25 -58 0 -43 3 -53 20 -57 32 -9 50 -7
69 7 16 12 16 18 6 58 -7 24 -17 47 -24 51 -12 9 -12 9 -46 -1z"/>
<path d="M5732 2325 c0 -16 2 -22 5 -12 2 9 2 23 0 30 -3 6 -5 -1 -5 -18z"/>
<path d="M1690 2287 c0 -86 9 -117 34 -117 12 0 27 5 34 12 9 9 12 9 12 0 0
-11 81 -18 91 -8 2 3 2 30 -1 62 -4 51 -8 58 -27 59 -13 1 -31 9 -40 17 -10 9
-37 19 -60 23 l-43 7 0 -55z"/>
<path d="M5131 2312 c-1 -16 -5 -21 -13 -16 -8 5 -7 0 2 -11 9 -11 17 -50 21
-99 l6 -81 1 75 c1 69 -14 187 -17 132z"/>
<path d="M4833 2262 c0 -29 4 -49 8 -45 5 5 5 29 0 53 l-9 45 1 -53z"/>
<path d="M3717 2294 c-14 -14 -6 -23 21 -22 15 1 42 -7 61 -16 18 -10 35 -16
37 -13 3 2 -19 15 -48 28 -29 13 -56 25 -59 27 -3 1 -8 -1 -12 -4z"/>
<path d="M4964 2185 c0 -66 1 -92 3 -57 2 34 2 88 0 120 -2 31 -3 3 -3 -63z"/>
<path d="M1505 2250 c3 -5 13 -10 21 -10 8 0 14 5 14 10 0 6 -9 10 -21 10 -11
0 -17 -4 -14 -10z"/>
<path d="M5840 2231 c0 -36 4 -37 56 -14 l39 18 -35 3 c-19 2 -41 8 -47 14
-10 8 -13 3 -13 -21z"/>
<path d="M5643 2243 c9 -2 25 -2 35 0 9 3 1 5 -18 5 -19 0 -27 -2 -17 -5z"/>
<path d="M5645 2210 c-57 -17 -59 -18 -30 -25 17 -4 47 -11 69 -17 21 -5 39
-8 41 -6 1 2 5 18 8 36 8 38 1 39 -88 12z"/>
<path d="M4831 2134 c0 -11 3 -14 6 -6 3 7 2 16 -1 19 -3 4 -6 -2 -5 -13z"/>
<path d="M4000 2110 c0 -5 7 -10 15 -10 8 0 15 5 15 10 0 6 -7 10 -15 10 -8 0
-15 -4 -15 -10z"/>
<path d="M4882 2090 c0 -19 2 -27 5 -17 2 9 2 25 0 35 -3 9 -5 1 -5 -18z"/>
<path d="M1476 2062 c1 -1 -12 -17 -28 -34 l-30 -32 117 -115 116 -114 22 24
c41 46 93 114 114 150 19 34 20 36 3 32 -12 -3 -17 -11 -13 -21 4 -15 3 -15
-6 -2 -6 8 -11 25 -11 38 0 12 -3 22 -7 23 -5 0 -16 2 -25 4 -12 2 -28 -12
-48 -42 -25 -37 -30 -52 -24 -77 6 -27 5 -29 -9 -18 -8 7 -18 24 -21 38 -6 24
-10 26 -50 20 -42 -7 -43 -6 -43 19 0 14 -9 32 -19 40 -18 13 -18 14 -1 20 10
4 17 17 17 34 -1 25 -1 25 -15 7 -13 -17 -17 -18 -27 -5 -7 8 -12 13 -12 11z"/>
<path d="M3970 2059 c0 -5 5 -7 10 -4 6 3 10 8 10 11 0 2 -4 4 -10 4 -5 0 -10
-5 -10 -11z"/>
<path d="M4225 2060 c-3 -5 -1 -10 4 -10 6 0 11 5 11 10 0 6 -2 10 -4 10 -3 0
-8 -4 -11 -10z"/>
<path d="M4841 2054 c0 -11 3 -14 6 -6 3 7 2 16 -1 19 -3 4 -6 -2 -5 -13z"/>
<path d="M2120 1831 c0 -92 3 -196 6 -230 l7 -62 96 3 96 3 9 43 c6 28 5 55
-1 77 -14 45 0 58 53 47 l39 -8 3 -82 c2 -66 6 -82 18 -82 13 0 15 20 14 143
-1 78 0 150 1 159 3 22 18 13 16 -10 -1 -22 29 -68 51 -77 48 -20 86 -23 127
-8 50 16 61 35 38 59 -13 13 -29 15 -69 11 -51 -5 -53 -5 -84 34 -27 34 -34
38 -53 28 -21 -10 -21 -9 1 8 20 17 22 21 9 31 -12 10 -24 9 -58 -2 -34 -11
-73 -13 -174 -8 l-130 7 0 43 c0 23 -3 42 -7 42 -5 0 -8 -76 -8 -169z m290
-10 c0 -12 -21 -27 -47 -34 -19 -4 -23 -1 -23 19 0 21 5 24 35 24 19 0 35 -4
35 -9z"/>
<path d="M2328 1993 c12 -2 32 -2 45 0 12 2 2 4 -23 4 -25 0 -35 -2 -22 -4z"/>
<path d="M1284 1829 l-140 -139 41 -40 c47 -46 82 -52 154 -26 24 9 56 16 72
16 16 0 29 5 29 10 0 19 19 10 26 -12 4 -13 11 -26 16 -29 5 -3 5 -14 1 -25
-6 -16 -9 -12 -19 21 -12 40 -12 40 -13 8 -1 -26 -4 -30 -21 -26 -12 3 -20 14
-20 25 0 12 -5 18 -12 15 -7 -2 -39 -12 -71 -21 -45 -13 -57 -21 -53 -32 3 -9
6 -24 6 -35 0 -14 7 -19 25 -19 16 0 25 -6 25 -15 0 -9 -9 -15 -25 -15 -18 0
-25 -5 -25 -20 0 -11 -4 -20 -10 -20 -16 0 -12 -36 6 -50 13 -11 23 -5 69 40
53 52 54 53 79 37 21 -14 25 -26 28 -69 l3 -53 47 -3 47 -3 -1 48 c0 72 6 126
16 141 4 8 8 40 9 72 0 54 3 62 34 92 18 17 33 35 33 39 0 4 -49 56 -108 117
l-109 110 -139 -139z m146 -59 c0 -11 -2 -20 -4 -20 -2 0 -6 9 -9 20 -3 11 -1
20 4 20 5 0 9 -9 9 -20z m35 0 c3 -5 1 -10 -4 -10 -6 0 -11 5 -11 10 0 6 2 10
4 10 3 0 8 -4 11 -10z"/>
<path d="M4353 1963 c9 -2 25 -2 35 0 9 3 1 5 -18 5 -19 0 -27 -2 -17 -5z"/>
<path d="M2640 1913 c0 -13 -3 -14 -12 -5 -17 17 -28 15 -27 -5 0 -11 3 -13 6
-5 3 8 11 4 25 -13 26 -33 58 -34 58 -1 0 13 6 27 13 30 6 4 2 4 -10 2 -13 -2
-23 0 -23 5 0 5 -7 9 -15 9 -8 0 -15 -8 -15 -17z"/>
<path d="M4138 1923 c12 -2 30 -2 40 0 9 3 -1 5 -23 4 -22 0 -30 -2 -17 -4z"/>
<path d="M4414 1853 c5 -10 -6 -13 -43 -13 l-51 0 0 -46 c0 -40 2 -45 15 -34
8 7 15 27 16 44 l1 31 10 -30 c6 -16 17 -38 26 -47 28 -33 -12 -73 -49 -49
-17 10 -19 8 -19 -16 0 -14 8 -35 17 -45 21 -24 6 -53 -27 -52 -19 1 -21 -3
-15 -33 5 -28 3 -33 -13 -33 -15 0 -22 -10 -27 -37 -11 -59 -41 -118 -76 -147
-56 -48 -59 -42 -59 119 l0 145 -30 0 c-17 0 -30 5 -30 13 0 6 -5 4 -11 -6 -7
-12 -10 -75 -7 -170 l3 -152 -44 -3 c-51 -4 -120 19 -146 48 -13 15 -21 17
-31 9 -7 -6 -10 -17 -7 -25 4 -10 0 -12 -13 -7 -13 5 -15 3 -9 -7 5 -8 4 -11
-2 -7 -6 4 -16 0 -23 -9 -7 -8 -19 -13 -26 -10 -8 3 -13 0 -11 -6 1 -6 -24
-26 -56 -44 -32 -18 -55 -28 -51 -22 4 6 1 9 -7 6 -8 -3 -13 -11 -11 -18 2 -8
-4 -10 -15 -6 -10 3 8 -19 40 -48 65 -61 175 -119 255 -135 156 -32 347 13
499 118 l51 35 7 75 c5 52 4 76 -4 79 -16 5 -14 29 3 35 8 3 21 28 31 56 16
49 35 68 35 36 0 -20 26 -19 34 0 4 12 10 13 25 6 25 -14 29 -7 37 60 6 54 9
59 30 59 13 0 24 4 24 9 0 17 -19 22 -39 12 -17 -9 -19 -5 -25 47 -7 59 -44
154 -67 167 -9 6 -11 -6 -6 -55 3 -34 10 -67 16 -73 16 -16 13 -54 -5 -61 -25
-10 -33 -7 -44 14 -8 15 -7 25 4 42 15 25 27 188 13 188 -5 0 -5 -4 -2 -10 9
-15 -68 -12 -84 3 -11 10 -13 10 -7 0z m31 -97 c8 11 15 33 15 49 1 26 2 28
11 12 6 -11 12 -24 14 -30 1 -7 5 -20 9 -29 14 -31 2 -53 -27 -53 -30 1 -33
-6 -15 -34 14 -23 -4 -51 -33 -51 -25 0 -32 32 -14 66 8 16 16 58 17 94 l2 65
3 -54 c4 -48 5 -52 18 -35z m83 -198 c-6 -18 -28 -21 -28 -4 0 9 7 16 16 16 9
0 14 -5 12 -12z m52 -13 c0 -16 -27 -27 -36 -14 -3 5 -3 16 0 24 6 17 36 9 36
-10z m-725 -341 c12 4 15 -3 15 -32 0 -45 -14 -62 -50 -62 -35 0 -50 17 -50
57 0 26 4 33 20 33 11 0 20 5 20 11 0 8 5 8 15 -1 8 -7 22 -10 30 -6z m-94
-80 c12 -14 11 -16 -5 -13 -11 2 -21 10 -24 17 -5 17 13 15 29 -4z m148 -50
c3 -2 0 -9 -7 -16 -14 -14 -73 1 -80 21 -4 11 4 13 39 7 24 -4 45 -9 48 -12z"/>
<path d="M4932 1813 c-3 -69 -17 -75 -32 -12 -7 27 -14 48 -16 46 -2 -2 3 -55
11 -117 18 -133 19 -204 5 -195 -5 3 -10 0 -10 -7 0 -9 -3 -9 -10 2 -13 21
-13 -8 1 -107 26 -178 160 -338 325 -388 71 -21 239 -38 303 -31 30 4 74 18
97 31 45 26 104 91 104 113 0 7 4 11 9 7 19 -11 25 21 22 124 -1 58 -1 104 2
101 5 -6 17 -127 17 -179 0 -55 18 -24 22 37 2 29 7 51 13 50 5 -2 9 -9 7 -15
-5 -22 8 -14 17 9 6 17 3 26 -13 40 -16 13 -18 17 -6 18 9 0 21 -5 27 -11 8
-8 13 -7 18 2 6 8 4 10 -6 5 -10 -6 -10 -4 1 6 16 14 26 43 13 35 -5 -3 -24
-2 -43 2 l-35 8 30 12 c17 7 47 21 68 32 48 24 50 19 46 -96 -2 -47 -1 -85 3
-85 9 0 15 244 5 248 -4 2 -14 10 -22 19 -13 13 -15 13 -15 -2 0 -16 -90 -65
-121 -65 -32 0 -109 32 -109 46 0 8 -4 14 -10 14 -5 0 -26 14 -46 32 -30 27
-39 30 -55 20 -10 -7 -26 -12 -34 -12 -8 0 -15 -7 -15 -16 0 -23 -64 -84 -89
-84 -14 0 -21 -6 -21 -20 0 -35 56 -17 100 32 16 17 32 29 35 26 4 -3 7 -39 8
-79 2 -67 4 -74 23 -77 17 -2 23 -12 27 -43 3 -22 13 -49 22 -59 10 -11 15
-26 12 -35 -7 -16 -57 -21 -57 -5 0 5 -13 7 -30 4 -30 -6 -30 -6 -30 40 0 26
-5 46 -11 46 -5 0 -7 5 -3 12 5 7 3 8 -5 3 -7 -4 -44 -9 -81 -10 -69 -3 -69
-3 -96 34 -15 20 -46 56 -70 81 l-43 45 -18 140 c-17 130 -18 136 -23 83 -6
-66 -20 -87 -41 -62 -10 13 -14 48 -13 136 0 65 -2 118 -4 118 -11 0 -31 -37
-32 -57 0 -28 -10 -53 -21 -53 -5 0 -9 21 -9 46 0 32 -4 44 -12 42 -9 -3 -14
-40 -16 -129 -2 -136 -7 -163 -22 -139 -8 12 -10 11 -11 -5 -3 -57 -21 55 -28
170 -4 72 -9 107 -9 78z m796 -427 c3 -11 -4 -16 -22 -16 -21 0 -26 5 -26 25
0 21 3 23 23 16 12 -5 23 -16 25 -25z m-625 -26 c14 -11 31 -36 37 -55 14 -43
44 -66 79 -59 14 3 55 1 91 -4 63 -10 66 -9 86 16 l21 26 12 -22 c8 -16 8 -22
1 -22 -7 0 -9 -8 -5 -20 4 -14 -6 -32 -37 -67 -23 -26 -44 -50 -46 -53 -2 -3
-13 6 -24 20 -62 77 -77 92 -90 84 -19 -12 -48 -15 -48 -5 0 5 9 11 20 14 11
3 20 11 20 19 0 11 -2 11 -9 0 -9 -15 -67 -18 -118 -7 -41 9 -58 48 -49 110 8
50 20 55 59 25z m552 -17 c-8 -35 -10 -37 -30 -29 -9 3 -13 10 -10 16 3 5 0
10 -7 10 -14 1 30 29 46 30 4 0 5 -12 1 -27z"/>
<path d="M3958 1843 c34 -2 88 -2 120 0 31 2 3 3 -63 3 -66 0 -92 -1 -57 -3z"/>
<path d="M4156 1836 c10 -8 21 -12 24 -10 5 6 -21 24 -34 24 -6 0 -1 -6 10
-14z"/>
<path d="M4194 1815 c4 -14 15 -39 25 -55 16 -26 20 -28 30 -16 7 9 15 33 18
56 l6 40 -43 0 c-40 0 -42 -1 -36 -25z"/>
<path d="M4280 1818 c0 -36 11 -68 21 -62 5 3 9 23 9 45 0 28 -4 39 -15 39 -9
0 -15 -9 -15 -22z"/>
<path d="M5472 1708 c-24 -24 -14 -45 23 -46 57 -2 78 -18 71 -54 -5 -26 -4
-29 9 -18 16 13 19 52 6 84 -4 10 -25 24 -47 32 -48 17 -47 17 -62 2z"/>
<path d="M4041 1676 l-23 -24 50 -3 c78 -6 87 -2 53 27 -36 30 -52 30 -80 0z"/>
<path d="M1097 1644 l-29 -34 67 0 67 0 -33 35 c-19 19 -36 35 -39 34 -3 0
-18 -16 -33 -35z"/>
<path d="M4264 1664 c3 -9 6 -21 6 -27 0 -12 29 23 30 36 0 4 -9 7 -21 7 -15
0 -19 -4 -15 -16z"/>
<path d="M3693 1591 c-13 -21 -6 -41 16 -41 20 0 24 29 6 46 -9 9 -14 8 -22
-5z"/>
<path d="M3603 1563 c4 -22 1 -23 -48 -23 -46 0 -53 3 -58 22 -6 20 -7 20 -37
-12 -42 -45 -34 -60 34 -60 45 0 57 4 66 20 11 21 56 28 62 9 2 -6 14 -2 28
11 l25 21 -27 -4 c-24 -4 -27 -1 -22 18 4 16 1 22 -11 22 -12 0 -15 -7 -12
-24z"/>
<path d="M2411 1564 c0 -11 3 -14 6 -6 3 7 2 16 -1 19 -3 4 -6 -2 -5 -13z"/>
<path d="M1914 1539 c-19 -22 -19 -22 2 -9 12 7 29 10 38 7 15 -6 15 -9 1 -36
-18 -37 -10 -63 19 -59 18 3 21 10 21 48 1 25 -3 51 -8 58 -14 19 -52 14 -73
-9z"/>
<path d="M3740 1551 c0 -5 8 -12 17 -15 15 -6 15 -8 3 -16 -13 -8 -13 -10 1
-10 22 0 28 8 22 31 -5 19 -43 28 -43 10z"/>
<path d="M1868 1543 c7 -3 16 -2 19 1 4 3 -2 6 -13 5 -11 0 -14 -3 -6 -6z"/>
<path d="M1010 1505 c0 -18 5 -25 20 -25 15 0 20 7 20 25 0 18 -5 25 -20 25
-15 0 -20 -7 -20 -25z"/>
<path d="M2128 1523 c6 -2 18 -2 25 0 6 3 1 5 -13 5 -14 0 -19 -2 -12 -5z"/>
<path d="M2213 1523 c26 -2 67 -2 90 0 23 2 2 3 -48 3 -49 0 -68 -1 -42 -3z"/>
<path d="M950 1489 c0 -11 4 -18 10 -14 5 3 7 12 3 20 -7 21 -13 19 -13 -6z"/>
<path d="M3735 1480 c-11 -4 -24 -5 -29 -2 -5 2 -6 -1 -4 -9 3 -9 16 -13 34
-11 l29 3 -28 -26 c-34 -30 -43 -31 -50 -5 -8 32 -27 23 -23 -10 3 -30 3 -30
-14 -13 -10 10 -16 21 -13 26 2 4 -5 7 -17 7 -12 0 -24 -9 -30 -24 -5 -13 -15
-26 -22 -29 -7 -3 2 -8 20 -12 l33 -8 -28 -18 c-36 -24 -51 -24 -55 1 -2 12
-7 19 -13 18 -5 -2 -9 -7 -7 -12 2 -5 -6 -6 -18 -3 -17 4 -19 2 -13 -21 3 -15
10 -30 16 -33 5 -4 4 -8 -3 -11 -9 -3 -8 -8 4 -20 15 -16 22 -13 102 33 47 27
91 46 96 43 7 -4 8 -2 4 4 -7 12 30 26 55 20 9 -2 13 4 11 17 -2 12 0 16 5 9
4 -6 16 -13 25 -17 12 -4 16 -1 15 13 -1 10 -5 16 -9 14 -4 -3 -8 0 -8 5 0 6
4 11 10 11 6 0 6 9 1 22 -5 13 -16 23 -25 23 -9 0 -20 5 -24 11 -4 7 -15 8
-27 4z"/>
<path d="M2120 1440 c0 -5 12 -10 28 -9 24 0 25 1 7 9 -27 12 -35 12 -35 0z"/>
<path d="M5290 1440 c0 -5 5 -10 10 -10 6 0 10 5 10 10 0 6 -4 10 -10 10 -5 0
-10 -4 -10 -10z"/>
<path d="M1332 1407 c-27 -28 -30 -36 -19 -45 16 -14 27 -6 27 20 0 11 5 16
10 13 11 -7 24 18 18 35 -2 6 -18 -4 -36 -23z"/>
<path d="M933 1413 c9 -2 23 -2 30 0 6 3 -1 5 -18 5 -16 0 -22 -2 -12 -5z"/>
<path d="M3076 1391 c-19 -19 -26 -36 -22 -46 4 -11 -3 -28 -19 -47 -14 -16
-25 -33 -25 -38 0 -5 19 -8 43 -7 44 1 143 -40 172 -73 13 -15 22 -16 48 -8
72 24 70 20 29 63 -21 22 -54 49 -73 60 -19 11 -49 44 -68 73 -18 28 -39 52
-45 52 -7 0 -25 -13 -40 -29z m94 -116 c14 -19 14 -19 -5 -5 -52 38 -83 69
-73 72 11 4 52 -31 78 -67z"/>
<path d="M1924 1398 c-7 -12 5 -28 21 -28 10 0 25 20 25 34 0 6 -42 0 -46 -6z"/>
<path d="M4562 1372 c-1 -24 0 -25 9 -9 7 11 7 23 2 28 -5 5 -9 -3 -11 -19z"/>
<path d="M3767 1336 c-3 -8 -3 -17 0 -20 9 -9 34 15 27 25 -8 13 -21 11 -27
-5z"/>
<path d="M4553 1333 c-16 -6 -17 -46 -1 -41 12 4 32 48 20 47 -4 0 -13 -3 -19
-6z"/>
<path d="M1003 1299 c-9 -24 -17 -30 -35 -27 -12 2 -28 14 -35 28 l-13 25 0
-24 c0 -14 -10 -35 -22 -48 -12 -13 -16 -23 -10 -23 6 0 14 5 17 11 4 6 13 8
21 5 8 -3 14 -1 14 4 0 6 5 10 11 10 5 0 8 -4 5 -9 -3 -5 0 -9 7 -8 47 1 47 2
49 -100 l2 -98 3 89 c3 70 8 92 21 102 9 8 20 14 24 14 4 0 9 -44 11 -97 l3
-98 2 103 c2 85 5 102 18 102 9 0 12 -5 8 -12 -5 -7 -3 -8 5 -4 7 5 21 0 32
-10 18 -16 20 -16 37 -1 10 10 22 17 26 17 4 0 6 -45 5 -100 -2 -55 0 -103 4
-106 4 -4 7 43 7 104 0 100 2 112 18 112 16 1 16 1 0 11 -10 5 -19 22 -19 37
-1 27 -1 27 -8 -3 l-6 -30 -21 21 -21 21 -9 -21 c-6 -15 -18 -21 -39 -21 -25
0 -31 5 -36 30 -7 30 -7 30 -8 3 -1 -24 -34 -68 -51 -68 -4 0 -5 20 -4 45 2
25 2 45 1 45 -2 0 -8 -14 -14 -31z m3 -46 c-10 -10 -19 5 -10 18 6 11 8 11 12
0 2 -7 1 -15 -2 -18z m194 18 c0 -5 -7 -11 -15 -15 -9 -3 -15 0 -15 9 0 8 7
15 15 15 8 0 15 -4 15 -9z m-40 -22 c0 -18 -2 -19 -15 -9 -15 12 -12 30 6 30
5 0 9 -10 9 -21z"/>
<path d="M857 1287 c-3 -8 6 -12 25 -13 32 -1 32 -1 1 14 -16 9 -22 9 -26 -1z"/>
<path d="M764 1258 c-15 -19 -16 -20 -1 -9 16 12 17 9 17 -49 0 -81 9 -74 11
9 1 35 5 57 10 49 4 -7 11 -9 16 -5 7 7 -13 26 -28 27 -3 0 -14 -10 -25 -22z"/>
<path d="M854 1135 c0 -66 1 -92 3 -57 2 34 2 88 0 120 -2 31 -3 3 -3 -63z"/>
<path d="M1163 1130 c0 -47 2 -66 4 -42 2 23 2 61 0 85 -2 23 -4 4 -4 -43z"/>
<path d="M3345 1139 c-51 -18 -70 -43 -38 -51 25 -7 43 1 43 18 0 8 4 14 10
14 18 0 88 -55 94 -74 7 -26 -10 -66 -29 -66 -8 0 -15 -4 -15 -10 0 -18 36
-10 58 13 34 36 26 94 -20 137 -38 36 -50 38 -103 19z"/>
<path d="M4455 1136 c-19 -20 -19 -24 -4 -39 9 -10 31 -17 52 -17 36 0 37 1
37 40 0 29 -4 40 -15 40 -9 0 -15 -9 -15 -24 0 -31 -26 -54 -42 -38 -9 9 -6
12 11 12 17 0 22 5 19 22 -4 29 -19 30 -43 4z"/>
<path d="M927 1113 c-2 -21 -1 -45 4 -53 5 -10 9 4 9 38 0 61 -6 68 -13 15z"/>
<path d="M782 1085 c0 -16 2 -22 5 -12 2 9 2 23 0 30 -3 6 -5 -1 -5 -18z"/>
<path d="M1271 1034 c0 -11 3 -14 6 -6 3 7 2 16 -1 19 -3 4 -6 -2 -5 -13z"/>
<path d="M1947 1043 c-12 -11 -8 -23 8 -23 8 0 15 7 15 15 0 16 -12 20 -23 8z"/>
<path d="M1900 1030 c0 -5 7 -10 15 -10 8 0 15 5 15 10 0 6 -7 10 -15 10 -8 0
-15 -4 -15 -10z"/>
<path d="M1218 1023 c7 -3 16 -2 19 1 4 3 -2 6 -13 5 -11 0 -14 -3 -6 -6z"/>
</g>
</svg>
