<svg xmlns="http://www.w3.org/2000/svg"  viewBox="0 0 100 100" width="250px" height="250px"><path d="M 32.925781 24.875 C 27.820781 24.875 24.280719 27.750219 22.136719 30.324219 L 22.039062 30.324219 C 15.926063 30.324219 10.616594 33.599094 8.1835938 38.871094 C 7.2455938 40.902094 7.1554062 42.978375 7.0664062 44.984375 L 7.0195312 45.945312 C 6.9445312 47.346313 7.0165312 72.915906 7.0195312 74.003906 C 7.0215313 74.554906 7.4685312 75 8.0195312 75 L 18.015625 75 C 18.281625 75 18.535656 74.895031 18.722656 74.707031 C 18.909656 74.519031 19.015625 74.264047 19.015625 73.998047 C 19.005625 63.226047 18.993672 42.682062 19.013672 42.039062 C 19.204672 37.276063 21.108203 34.459422 23.033203 32.357422 C 31.110203 32.545422 36.676594 37.831953 36.933594 45.626953 C 36.998594 47.658953 36.932641 73.733094 36.931641 73.996094 C 36.930641 74.262094 37.036609 74.517078 37.224609 74.705078 C 37.411609 74.894078 37.665641 75 37.931641 75 L 48.015625 75 C 48.568625 75 49.015625 74.553 49.015625 74 C 49.015625 73.701 49.015187 44.055359 48.992188 41.068359 C 48.991188 31.988359 41.934781 24.875 32.925781 24.875 z M 81.982422 24.96875 C 81.429422 24.96875 80.982422 25.41575 80.982422 25.96875 L 80.984375 27.935547 C 80.999375 47.964547 80.999375 58.356359 80.984375 58.818359 C 80.828375 62.720359 79.595 65.763953 77 68.626953 C 69.719 68.433953 65.393375 63.447766 65.109375 54.884766 C 65.048375 53.030766 65.019672 30.685609 65.013672 26.224609 C 65.012672 25.122609 64.255578 25.033203 64.017578 25.033203 L 64.013672 25.033203 L 54.001953 25.035156 C 53.461953 25.035156 53.018953 25.465859 53.001953 26.005859 C 52.987953 26.440859 52.986328 48.944563 52.986328 58.601562 C 52.986328 66.555562 58.659469 75.070312 67.105469 75.070312 C 71.235469 75.070312 74.937844 73.547203 77.839844 70.658203 C 77.891844 70.659203 77.941188 70.660156 77.992188 70.660156 C 83.758188 70.660156 89.189078 67.318438 91.830078 62.148438 C 93.012078 59.834437 93.013672 57.503109 93.013672 55.037109 L 93.013672 25.96875 L 93.015625 25.96875 C 93.015625 25.41575 92.568625 24.96875 92.015625 24.96875 L 81.982422 24.96875 z M 32.925781 26.875 C 40.812781 26.875 46.990234 33.109172 46.990234 41.076172 C 47.011234 43.748172 47.013672 67.768 47.013672 73 L 38.935547 73 C 38.947547 68.098 38.992641 47.421547 38.931641 45.560547 C 38.655641 37.166547 33.037609 31.313937 24.724609 30.460938 C 26.609609 28.596937 29.324781 26.875 32.925781 26.875 z M 82.984375 26.96875 L 91.013672 26.96875 L 91.013672 55.033203 L 91.015625 55.033203 C 91.015625 57.349203 91.015734 59.350328 90.052734 61.236328 C 88.005734 65.244328 84.036344 67.990781 79.652344 68.550781 C 81.765344 65.727781 82.834422 62.609484 82.982422 58.896484 C 82.998422 58.479484 83.000375 48.641594 82.984375 27.933594 L 82.984375 26.96875 z M 63.015625 27.03125 C 63.024625 34.09425 63.054281 53.184219 63.113281 54.949219 C 63.405281 63.812219 67.801578 69.452797 75.017578 70.466797 C 72.750578 72.175797 70.055422 73.068359 67.107422 73.068359 C 59.857422 73.068359 54.986328 65.586656 54.986328 58.597656 C 54.986328 45.187656 54.990047 30.849203 54.998047 27.033203 L 63.015625 27.03125 z M 32.929688 29.375 L 32.78125 29.376953 C 32.50625 29.382953 32.286969 29.611672 32.292969 29.888672 C 32.298969 30.160672 32.521969 30.376953 32.792969 30.376953 L 32.802734 30.376953 L 32.931641 30.375 C 34.069641 30.375 35.183141 30.533609 36.244141 30.849609 C 36.292141 30.863609 36.341672 30.871094 36.388672 30.871094 C 36.604672 30.871094 36.803187 30.729672 36.867188 30.513672 C 36.945187 30.246672 36.794297 29.968625 36.529297 29.890625 C 35.375297 29.548625 34.164688 29.375 32.929688 29.375 z M 88.5 29.46875 C 88.224 29.46875 88 29.69275 88 29.96875 L 88 32.830078 C 88 33.106078 88.224 33.330078 88.5 33.330078 C 88.776 33.330078 89 33.106078 89 32.830078 L 89 29.96875 C 89 29.69275 88.776 29.46875 88.5 29.46875 z M 57.382812 29.533203 C 57.106812 29.533203 56.882812 29.757203 56.882812 30.033203 C 56.877812 36.081203 56.875 48.053609 56.875 58.599609 C 56.875 59.441609 56.965531 60.305922 57.144531 61.169922 C 57.193531 61.405922 57.401813 61.568359 57.632812 61.568359 C 57.666812 61.568359 57.701328 61.564641 57.736328 61.556641 C 58.007328 61.500641 58.179047 61.237797 58.123047 60.966797 C 57.958047 60.169797 57.875 59.372609 57.875 58.599609 C 57.875 48.052609 57.877813 36.080203 57.882812 30.033203 C 57.882812 29.758203 57.658813 29.533203 57.382812 29.533203 z M 40.376953 32.011719 C 40.249453 32.023719 40.125609 32.084406 40.037109 32.191406 C 39.861109 32.404406 39.892469 32.720484 40.105469 32.896484 C 42.538469 34.904484 43.933594 37.882266 43.933594 41.072266 C 43.953594 43.554266 43.956031 63.842 43.957031 70 C 43.957031 70.276 44.181031 70.5 44.457031 70.5 C 44.733031 70.5 44.957031 70.276 44.957031 70 C 44.956031 63.841 44.952594 43.550359 44.933594 41.068359 C 44.934594 37.584359 43.406187 34.324 40.742188 32.125 C 40.636688 32.037 40.504453 31.999719 40.376953 32.011719 z M 20.371094 32.414062 C 18.705094 34.588062 17.190625 37.572938 17.015625 41.960938 C 16.989625 42.600938 17.008672 67.045 17.013672 73 L 9.015625 73 C 8.989625 63.584 8.9615781 47.092687 9.0175781 46.054688 C 9.0365781 45.725687 9.0504531 45.397266 9.0644531 45.072266 C 9.1474531 43.175266 9.226 41.385937 10 39.710938 C 11.91 35.570937 15.717094 32.923062 20.371094 32.414062 z M 88.5 35.457031 C 88.224 35.457031 88 35.681031 88 35.957031 L 88 54.982422 C 88 57.016422 88.000641 58.487375 87.306641 59.609375 C 86.773641 60.473375 86.081859 61.272375 85.255859 61.984375 C 85.046859 62.165375 85.024125 62.480453 85.203125 62.689453 C 85.302125 62.805453 85.441031 62.863281 85.582031 62.863281 C 85.698031 62.863281 85.814203 62.823188 85.908203 62.742188 C 86.812203 61.963187 87.56925 61.085766 88.15625 60.134766 C 89.00025 58.770766 89 57.099422 89 54.982422 L 89 35.957031 C 89 35.681031 88.776 35.457031 88.5 35.457031 z M 11.5625 45.701172 C 11.2915 45.685172 11.051109 45.897828 11.037109 46.173828 C 11.024109 46.413828 11.015766 47.227031 11.009766 48.457031 C 11.008766 48.732031 11.231812 48.957984 11.507812 48.958984 L 11.509766 48.958984 C 11.784766 48.958984 12.008766 48.735938 12.009766 48.460938 C 12.015766 47.257937 12.023156 46.462563 12.035156 46.226562 C 12.049156 45.950562 11.8385 45.716172 11.5625 45.701172 z M 11.503906 50.917969 C 11.228906 50.917969 11.004906 51.141016 11.003906 51.416016 C 10.993906 56.193016 11.008344 63.146953 11.027344 70.001953 C 11.028344 70.277953 11.252344 70.5 11.527344 70.5 C 11.803344 70.499 12.028344 70.273047 12.027344 69.998047 C 12.008344 63.144047 11.993906 56.192969 12.003906 51.417969 C 12.004906 51.141969 11.779906 50.918969 11.503906 50.917969 z M 58.921875 64.226562 C 58.857453 64.232844 58.792422 64.250453 58.732422 64.283203 C 58.489422 64.415203 58.39925 64.720891 58.53125 64.962891 C 58.96925 65.770891 59.482687 66.515641 60.054688 67.181641 C 60.153687 67.296641 60.292594 67.355469 60.433594 67.355469 C 60.548594 67.355469 60.664766 67.315375 60.759766 67.234375 C 60.968766 67.054375 60.9925 66.739297 60.8125 66.529297 C 60.2875 65.917297 59.814156 65.228375 59.410156 64.484375 C 59.310406 64.302125 59.115141 64.207719 58.921875 64.226562 z M 62.214844 68.070312 C 62.088719 68.092313 61.970125 68.162391 61.890625 68.275391 C 61.731625 68.501391 61.787672 68.811703 62.013672 68.970703 C 63.339672 69.902703 64.784547 70.431922 66.310547 70.544922 C 66.323547 70.545922 66.334656 70.546875 66.347656 70.546875 C 66.606656 70.546875 66.826703 70.345031 66.845703 70.082031 C 66.864703 69.808031 66.659766 69.568828 66.384766 69.548828 C 65.041766 69.449828 63.764891 68.979344 62.587891 68.152344 C 62.475891 68.073344 62.340969 68.048312 62.214844 68.070312 z"/></svg>